<svg xmlns="http://www.w3.org/2000/svg" fill="currentColor" viewBox="0 0 24 24" focusable="false" aria-hidden="true" style="pointer-events: none; display: inherit; width: 100%; height: 100%;"><path clip-rule="evenodd" d="m12 7.75-.772-.464-4.186-2.511L2.5 7.803v6.307L12 19.29l9.5-5.181V7.803l-4.542-3.028-4.186 2.511L12 7.75ZM12 6 7.814 3.488c-.497-.298-1.122-.283-1.604.039L1.668 6.555C1.251 6.833 1 7.3 1 7.803v6.307c0 .548.3 1.054.782 1.316l9.5 5.182c.447.244.989.244 1.436 0l9.5-5.182c.482-.262.782-.768.782-1.316V7.803c0-.502-.25-.97-.668-1.248L17.79 3.527c-.482-.322-1.107-.337-1.604-.039L12 6Zm3.5 6.25c0 .69-.56 1.25-1.25 1.25S13 12.94 13 12.25 13.56 11 14.25 11s1.25.56 1.25 1.25ZM7 8c-.414 0-.75.336-.75.75v1.5h-1.5c-.414 0-.75.336-.75.75s.336.75.75.75h1.5v1.5c0 .414.336.75.75.75s.75-.336.75-.75v-1.5h1.5c.414 0 .75-.336.75-.75s-.336-.75-.75-.75h-1.5v-1.5C7.75 8.336 7.414 8 7 8Zm10.75 3c.69 0 1.25-.56 1.25-1.25s-.56-1.25-1.25-1.25-1.25.56-1.25 1.25.56 1.25 1.25 1.25Z" fill-rule="evenodd"/></svg>