<svg xmlns="http://www.w3.org/2000/svg" fill="currentColor" viewBox="0 0 24 24" focusable="false" aria-hidden="true" style="pointer-events: none; display: inherit; width: 100%; height: 100%;"><path clip-rule="evenodd" d="M13.847 5.248c-1.638-.448-3.384-.285-4.91.458C7.853 6.233 6.933 7.026 6.254 8H8.5c.552 0 1 .448 1 1s-.448 1-1 1H3V4.5c0-.552.448-1 1-1s1 .448 1 1v1.843c.823-1.018 1.865-1.853 3.061-2.435 1.963-.956 4.207-1.165 6.313-.59 2.106.577 3.931 1.899 5.135 3.72 1.204 1.822 1.704 4.02 1.408 6.183-.296 2.163-1.369 4.145-3.018 5.576-1.649 1.431-3.762 2.214-5.945 2.203-2.184-.011-4.289-.816-5.923-2.264-1.634-1.448-2.686-3.441-2.96-5.607-.07-.548.319-1.049.867-1.118.548-.07 1.048.319 1.117.867.213 1.685 1.031 3.235 2.302 4.361 1.272 1.126 2.909 1.752 4.607 1.76 1.698.01 3.342-.6 4.624-1.712 1.283-1.113 2.117-2.655 2.347-4.337.23-1.683-.159-3.392-1.095-4.809-.936-1.417-2.355-2.445-3.993-2.893ZM13 7.5c0-.552-.448-1-1-1s-1 .448-1 1v5.015l.419.299 3.5 2.5c.45.32 1.074.217 1.395-.233.32-.45.217-1.074-.233-1.395L13 11.486V7.5Z" fill-rule="evenodd"/></svg>