<svg xmlns="http://www.w3.org/2000/svg" fill="currentColor" viewBox="0 0 24 24" focusable="false" aria-hidden="true" style="pointer-events: none; display: inherit; width: 100%; height: 100%;"><path clip-rule="evenodd" d="m14.5 16.065.749-.434C17.196 14.505 18.5 12.404 18.5 10c0-3.59-2.91-6.5-6.5-6.5S5.5 6.41 5.5 10c0 2.404 1.304 4.505 3.251 5.631l.749.434V17.5h5v-1.435Zm1.5.865c2.391-1.383 4-3.969 4-6.93 0-4.418-3.582-8-8-8s-8 3.582-8 8c0 2.961 1.609 5.546 4 6.93V19h8v-2.07ZM16 20v.5c0 .552-.448 1-1 1h-1.063c-.024.09-.053.179-.09.265-.1.243-.247.463-.433.65-.185.185-.406.332-.649.433-.242.1-.502.152-.765.152s-.523-.052-.765-.152c-.243-.1-.463-.248-.65-.434-.185-.186-.332-.406-.433-.649-.036-.086-.065-.175-.088-.265H9c-.552 0-1-.448-1-1V20h8Z" fill-rule="evenodd"/></svg>