<svg xmlns="http://www.w3.org/2000/svg" fill="currentColor" viewBox="0 0 24 24" focusable="false" aria-hidden="true" style="pointer-events: none; display: inherit; width: 100%; height: 100%;"><path clip-rule="evenodd" d="M19 3c0-.271-.146-.521-.383-.654-.237-.133-.527-.127-.758.014l-9 5.5c-.223.136-.359.379-.359.64v7.901C8.059 16.146 7.546 16 7 16c-1.657 0-3 1.343-3 3s1.343 3 3 3 3-1.343 3-3v-7.08l7.5-4.583v6.064c-.441-.255-.954-.401-1.5-.401-1.657 0-3 1.343-3 3s1.343 3 3 3 3-1.343 3-3V3Zm-1.5 13c0-.828-.672-1.5-1.5-1.5s-1.5.672-1.5 1.5.672 1.5 1.5 1.5 1.5-.672 1.5-1.5Zm-9 3c0-.828-.672-1.5-1.5-1.5s-1.5.672-1.5 1.5.672 1.5 1.5 1.5 1.5-.672 1.5-1.5Zm9-13.42L10 10.162V8.92l7.5-4.584V5.58Z" fill-rule="evenodd"/></svg>