<svg xmlns="http://www.w3.org/2000/svg" fill="currentColor" viewBox="0 0 24 24" focusable="false" aria-hidden="true" style="pointer-events: none; display: inherit; width: 100%; height: 100%;"><path clip-rule="evenodd" d="M2 5.121V3l.94.94.56.56.5.5.94-.94.12-.12L6 3l.94.94.12.12L8 5l.94-.94.12-.12L10 3l.94.94.12.12L12 5l.94-.94.12-.12L14 3l.94.94.12.12L16 5l.94-.94.12-.12L18 3l.94.94.12.12L20 5l.5-.5.56-.56L22 3v16c0 1.105-.895 2-2 2H4c-1.105 0-2-.895-2-2V5.121ZM10.75 19.5h-4.5v-5.25h4.5v5.25Zm1.25 0V13H5v6.5H4c-.276 0-.5-.224-.5-.5V7.65l2.514-2.514.925.925L8 7.12l1.06-1.06.94-.94.94.94L12 7.12l1.06-1.06.94-.94.94.94L16 7.12l1.06-1.06.926-.925L20.5 7.65V19c0 .276-.224.5-.5.5h-8ZM19 9v2H5V9h14Zm-5 4h5v1.5h-5V13Zm5 3h-5v1.5h5V16Z" fill-rule="evenodd"/></svg>