<svg xmlns="http://www.w3.org/2000/svg" fill="currentColor" viewBox="0 0 24 24" focusable="false" aria-hidden="true" style="pointer-events: none; display: inherit; width: 100%; height: 100%;"><path clip-rule="evenodd" d="M6.5 3.5h11V9c0 3.038-2.462 5.5-5.5 5.5S6.5 12.038 6.5 9V3.5ZM5 3.5C5 2.672 5.672 2 6.5 2h11c.828 0 1.5.672 1.5 1.5V4h2c.552 0 1 .448 1 1v3c0 2.493-1.825 4.56-4.212 4.938-1.082 1.588-2.8 2.707-4.788 2.991V17.5h1.5c.828 0 1.5.672 1.5 1.5v3H8v-3c0-.828.672-1.5 1.5-1.5H11v-1.57c-1.987-.285-3.706-1.404-4.788-2.992C3.825 12.56 2 10.493 2 8V5c0-.552.448-1 1-1h2v-.5Zm0 1.75H3.25V8c0 1.508.89 2.808 2.174 3.403C5.15 10.654 5 9.845 5 9V5.25Zm13.576 6.153C19.86 10.808 20.75 9.508 20.75 8V5.25H19V9c0 .844-.15 1.654-.424 2.403ZM9.5 20.5V19h5v1.5h-5Z" fill-rule="evenodd"/></svg>